<?xml version="1.0" encoding="utf-8"?>
<!-- Generator: Adobe Illustrator 18.0.0, SVG Export Plug-In . SVG Version: 6.00 Build 0)  -->
<!DOCTYPE svg PUBLIC "-//W3C//DTD SVG 1.1//EN" "http://www.w3.org/Graphics/SVG/1.1/DTD/svg11.dtd">
<svg version="1.1" xmlns="http://www.w3.org/2000/svg" xmlns:xlink="http://www.w3.org/1999/xlink" x="0px" y="0px"
	 viewBox="0 0 86 86" enable-background="new 0 0 86 86" xml:space="preserve">
<g id="Capa_1" display="none">
	<path display="inline" d="M77.3,17.2c1.4,2.6,2,5.7,2,9.6c0,8.7-3.7,15.7-10.9,21c-7.3,5.3-17.5,8-30.6,8h-3.1
		c-2.3,0-4.6,1.8-5.1,4l-3.7,15.7c-0.5,2.2-2.8,4-5.1,4h-6.7L13.5,82c-0.5,2.2,0.9,4,3.2,4h10.7c2.3,0,4.6-1.8,5.1-4l3.7-15.7
		c0.5-2.2,2.8-4,5.1-4h3.1c13.1,0,23.3-2.6,30.6-8C82.3,49,86,42,86,33.3c0-3.8-0.7-7-2-9.6c-1.4-2.5-3.3-4.6-5.9-6.2
		C77.8,17.4,77.6,17.3,77.3,17.2z M19.2,68.8l3.7-15.7c0.5-2.2,2.8-4,5.1-4h3.1c13.1,0,23.3-2.6,30.6-8c7.3-5.3,10.9-12.3,10.9-21
		c0-3.8-0.7-7-2-9.6c-1.4-2.5-3.3-4.6-5.9-6.2C62.1,2.8,59,1.6,55.4,1c-3.6-0.7-7.8-1-12.6-1H20.4c-2.3,0-4.6,1.8-5.1,4L0.1,68.8
		c-0.5,2.2,0.9,4,3.2,4h10.7C16.4,72.8,18.7,71,19.2,68.8z M28,31.2l3.2-13.7c0.5-2.2,2.8-4,5.1-4h3.5c4.1,0,7.2,0.7,9.3,2.1
		c2.1,1.4,3.1,3.5,3.1,6.3c0,4.3-1.6,7.6-4.8,9.9c-3.2,2.3-7.7,3.5-13.5,3.5h-2.7C28.9,35.2,27.5,33.4,28,31.2z"/>
</g>
<g id="Layer_2">
	<path fill="#FFFFFF" d="M80.9,35.2l-14-28.1c-0.5-0.9-1.4-1.5-2.4-1.5h-8.1c0-1.5-1.2-2.7-2.7-2.7H32.3c-1.5,0-2.7,1.2-2.7,2.7
		h-8.1c-1,0-1.9,0.6-2.4,1.5L5.1,35.2c-2.8,0.2-5,2.5-5,5.3c0,3,2.4,5.4,5.4,5.4v32.2c0,3,2.4,5.4,5.4,5.4h64.5c3,0,5.4-2.4,5.4-5.4
		V45.9c3,0,5.4-2.4,5.4-5.4C86,37.6,83.7,35.3,80.9,35.2z M23.2,11h6.4c0,1.5,1.2,2.7,2.7,2.7h21.5c1.5,0,2.7-1.2,2.7-2.7h6.4
		l12,24.2H11.1L23.2,11z M18.8,75.4c0,1.5-1.2,2.7-2.7,2.7c-1.5,0-2.7-1.2-2.7-2.7V48.6c0-1.5,1.2-2.7,2.7-2.7
		c1.5,0,2.7,1.2,2.7,2.7V75.4z M29.6,75.4c0,1.5-1.2,2.7-2.7,2.7s-2.7-1.2-2.7-2.7V48.6c0-1.5,1.2-2.7,2.7-2.7s2.7,1.2,2.7,2.7V75.4
		z M40.3,75.4c0,1.5-1.2,2.7-2.7,2.7c-1.5,0-2.7-1.2-2.7-2.7V48.6c0-1.5,1.2-2.7,2.7-2.7c1.5,0,2.7,1.2,2.7,2.7V75.4z M51.1,75.4
		c0,1.5-1.2,2.7-2.7,2.7s-2.7-1.2-2.7-2.7V48.6c0-1.5,1.2-2.7,2.7-2.7s2.7,1.2,2.7,2.7V75.4z M61.8,75.4c0,1.5-1.2,2.7-2.7,2.7
		s-2.7-1.2-2.7-2.7V48.6c0-1.5,1.2-2.7,2.7-2.7s2.7,1.2,2.7,2.7V75.4z M72.6,75.4c0,1.5-1.2,2.7-2.7,2.7c-1.5,0-2.7-1.2-2.7-2.7
		V48.6c0-1.5,1.2-2.7,2.7-2.7c1.5,0,2.7,1.2,2.7,2.7V75.4z"/>
</g>
</svg>
