<?xml version="1.0" encoding="utf-8"?>
<!-- Generator: Adobe Illustrator 18.0.0, SVG Export Plug-In . SVG Version: 6.00 Build 0)  -->
<!DOCTYPE svg PUBLIC "-//W3C//DTD SVG 1.1//EN" "http://www.w3.org/Graphics/SVG/1.1/DTD/svg11.dtd">
<svg version="1.1" xmlns="http://www.w3.org/2000/svg" xmlns:xlink="http://www.w3.org/1999/xlink" x="0px" y="0px"
	 viewBox="0 0 100 100" enable-background="new 0 0 100 100" xml:space="preserve">
<g id="Layer_1" display="none">
	<g id="Capa_1">
		<path display="inline" d="M89.9,20c1.6,3,2.3,6.6,2.3,11.2c0,10.1-4.3,18.3-12.7,24.4C71,61.7,59.2,64.9,44,64.9h-3.6
			c-2.7,0-5.3,2.1-5.9,4.7l-4.3,18.3c-0.6,2.6-3.3,4.7-5.9,4.7h-7.8l-0.7,2.9c-0.6,2.6,1,4.7,3.7,4.7h12.4c2.7,0,5.3-2.1,5.9-4.7
			l4.3-18.3c0.6-2.6,3.3-4.7,5.9-4.7h3.6c15.2,0,27.1-3,35.6-9.3C95.7,57,100,48.8,100,38.7c0-4.4-0.8-8.1-2.3-11.2
			c-1.6-2.9-3.8-5.3-6.9-7.2C90.5,20.2,90.2,20.1,89.9,20z M22.3,80l4.3-18.3c0.6-2.6,3.3-4.7,5.9-4.7h3.6c15.2,0,27.1-3,35.6-9.3
			c8.5-6.2,12.7-14.3,12.7-24.4c0-4.4-0.8-8.1-2.3-11.2c-1.6-2.9-3.8-5.3-6.9-7.2c-3-1.7-6.6-3.1-10.8-3.8C60.2,0.3,55.3,0,49.8,0
			h-26c-2.7,0-5.3,2.1-5.9,4.7L0.1,80c-0.6,2.6,1,4.7,3.7,4.7h12.4C19.1,84.7,21.7,82.6,22.3,80z M32.6,36.3l3.7-15.9
			c0.6-2.6,3.3-4.7,5.9-4.7h4.1c4.8,0,8.4,0.8,10.8,2.4c2.4,1.6,3.6,4.1,3.6,7.3c0,5-1.9,8.8-5.6,11.5c-3.7,2.7-9,4.1-15.7,4.1h-3.1
			C33.6,40.9,32,38.8,32.6,36.3z"/>
	</g>
	<g id="Layer_2" display="inline">
		<path fill="#FFFFFF" d="M94.1,40.9L77.8,8.3c-0.6-1-1.6-1.7-2.8-1.7h-9.4c0-1.7-1.4-3.1-3.1-3.1H37.6c-1.7,0-3.1,1.4-3.1,3.1H25
			c-1.2,0-2.2,0.7-2.8,1.7L5.9,40.9c-3.3,0.2-5.8,2.9-5.8,6.2c0,3.5,2.8,6.3,6.3,6.3v37.4c0,3.5,2.8,6.3,6.3,6.3h75
			c3.5,0,6.3-2.8,6.3-6.3V53.4c3.5,0,6.3-2.8,6.3-6.3C100,43.7,97.3,41,94.1,40.9z M27,12.8h7.4c0,1.7,1.4,3.1,3.1,3.1h25
			c1.7,0,3.1-1.4,3.1-3.1h7.4l14,28.1H12.9L27,12.8z M21.9,87.7c0,1.7-1.4,3.1-3.1,3.1s-3.1-1.4-3.1-3.1V56.5c0-1.7,1.4-3.1,3.1-3.1
			s3.1,1.4,3.1,3.1V87.7z M34.4,87.7c0,1.7-1.4,3.1-3.1,3.1s-3.1-1.4-3.1-3.1V56.5c0-1.7,1.4-3.1,3.1-3.1s3.1,1.4,3.1,3.1V87.7z
			 M46.9,87.7c0,1.7-1.4,3.1-3.1,3.1s-3.1-1.4-3.1-3.1V56.5c0-1.7,1.4-3.1,3.1-3.1s3.1,1.4,3.1,3.1V87.7z M59.4,87.7
			c0,1.7-1.4,3.1-3.1,3.1s-3.1-1.4-3.1-3.1V56.5c0-1.7,1.4-3.1,3.1-3.1s3.1,1.4,3.1,3.1V87.7z M71.9,87.7c0,1.7-1.4,3.1-3.1,3.1
			s-3.1-1.4-3.1-3.1V56.5c0-1.7,1.4-3.1,3.1-3.1s3.1,1.4,3.1,3.1V87.7z M84.4,87.7c0,1.7-1.4,3.1-3.1,3.1s-3.1-1.4-3.1-3.1V56.5
			c0-1.7,1.4-3.1,3.1-3.1s3.1,1.4,3.1,3.1V87.7z"/>
	</g>
</g>
<g id="Layer_2_1_">
	<g>
		<polygon fill="#FFFFFF" points="29.5,3.4 0.1,22.6 20.4,38.8 50,20.5 		"/>
		<polygon fill="#FFFFFF" points="0.1,55.1 29.5,74.3 50,57.1 20.4,38.8 		"/>
		<polygon fill="#FFFFFF" points="50,57.1 70.5,74.3 99.8,55.1 79.6,38.8 		"/>
		<polygon fill="#FFFFFF" points="99.8,22.6 70.5,3.4 50,20.5 79.6,38.8 		"/>
		<polygon fill="#FFFFFF" points="50,60.8 29.3,78 20.4,72.2 20.4,78.7 50,96.3 79.6,78.7 79.6,72.2 70.7,78 		"/>
	</g>
</g>
</svg>
