<?xml version="1.0" encoding="utf-8"?>
<!-- Generator: Adobe Illustrator 18.0.0, SVG Export Plug-In . SVG Version: 6.00 Build 0)  -->
<!DOCTYPE svg PUBLIC "-//W3C//DTD SVG 1.1//EN" "http://www.w3.org/Graphics/SVG/1.1/DTD/svg11.dtd">
<svg version="1.1" xmlns="http://www.w3.org/2000/svg" xmlns:xlink="http://www.w3.org/1999/xlink" x="0px" y="0px"
	 viewBox="0 0 40 40" enable-background="new 0 0 40 40" xml:space="preserve">
<g id="Layer_2" display="none">
	<g id="L24Eg3_1_" display="inline">
		
			<image overflow="visible" width="204" height="204" id="L24Eg3" xlink:href="CE47D9647BB6CD08.jpg"  transform="matrix(0.2726 0 0 0.2726 -7.8021 -8.875)">
		</image>
	</g>
</g>
<g id="Layer_3">
	<path fill="#FFFFFF" d="M38.7,33H1.3C0.6,33,0,32.4,0,31.7V15.4c0-0.9,1-1.6,1.8-1.1l17.6,8.9c0.4,0.2,0.8,0.2,1.1,0l17.6-8.9
		c0.8-0.4,1.8,0.2,1.8,1.1v16.3C40,32.4,39.4,33,38.7,33z"/>
	<path fill="#FFFFFF" d="M0,6.7h40v0.2c0,0.9-0.5,1.7-1.3,2.1l-17.6,9c-0.7,0.4-1.5,0.4-2.2,0L1.3,8.8C0.5,8.4,0,7.6,0,6.7L0,6.7z"
		/>
</g>
</svg>
