<?xml version="1.0" encoding="utf-8"?>
<!-- Generator: Adobe Illustrator 18.0.0, SVG Export Plug-In . SVG Version: 6.00 Build 0)  -->
<!DOCTYPE svg PUBLIC "-//W3C//DTD SVG 1.1//EN" "http://www.w3.org/Graphics/SVG/1.1/DTD/svg11.dtd">
<svg version="1.1" xmlns="http://www.w3.org/2000/svg" xmlns:xlink="http://www.w3.org/1999/xlink" x="0px" y="0px"
	 viewBox="0 0 100 100" enable-background="new 0 0 100 100" xml:space="preserve">
<g id="Layer_1" display="none">
	<g id="Capa_1">
		<path display="inline" d="M89.9,20c1.6,3,2.3,6.6,2.3,11.2c0,10.1-4.3,18.3-12.7,24.4C71,61.7,59.2,64.9,44,64.9h-3.6
			c-2.7,0-5.3,2.1-5.9,4.7l-4.3,18.3c-0.6,2.6-3.3,4.7-5.9,4.7h-7.8l-0.7,2.9c-0.6,2.6,1,4.7,3.7,4.7h12.4c2.7,0,5.3-2.1,5.9-4.7
			l4.3-18.3c0.6-2.6,3.3-4.7,5.9-4.7h3.6c15.2,0,27.1-3,35.6-9.3C95.7,57,100,48.8,100,38.7c0-4.4-0.8-8.1-2.3-11.2
			c-1.6-2.9-3.8-5.3-6.9-7.2C90.5,20.2,90.2,20.1,89.9,20z M22.3,80l4.3-18.3c0.6-2.6,3.3-4.7,5.9-4.7h3.6c15.2,0,27.1-3,35.6-9.3
			c8.5-6.2,12.7-14.3,12.7-24.4c0-4.4-0.8-8.1-2.3-11.2c-1.6-2.9-3.8-5.3-6.9-7.2c-3-1.7-6.6-3.1-10.8-3.8C60.2,0.3,55.3,0,49.8,0
			h-26c-2.7,0-5.3,2.1-5.9,4.7L0.1,80c-0.6,2.6,1,4.7,3.7,4.7h12.4C19.1,84.7,21.7,82.6,22.3,80z M32.6,36.3l3.7-15.9
			c0.6-2.6,3.3-4.7,5.9-4.7h4.1c4.8,0,8.4,0.8,10.8,2.4c2.4,1.6,3.6,4.1,3.6,7.3c0,5-1.9,8.8-5.6,11.5c-3.7,2.7-9,4.1-15.7,4.1h-3.1
			C33.6,40.9,32,38.8,32.6,36.3z"/>
	</g>
	<g id="Layer_2" display="inline">
		<path fill="#FFFFFF" d="M94.1,40.9L77.8,8.3c-0.6-1-1.6-1.7-2.8-1.7h-9.4c0-1.7-1.4-3.1-3.1-3.1H37.6c-1.7,0-3.1,1.4-3.1,3.1H25
			c-1.2,0-2.2,0.7-2.8,1.7L5.9,40.9c-3.3,0.2-5.8,2.9-5.8,6.2c0,3.5,2.8,6.3,6.3,6.3v37.4c0,3.5,2.8,6.3,6.3,6.3h75
			c3.5,0,6.3-2.8,6.3-6.3V53.4c3.5,0,6.3-2.8,6.3-6.3C100,43.7,97.3,41,94.1,40.9z M27,12.8h7.4c0,1.7,1.4,3.1,3.1,3.1h25
			c1.7,0,3.1-1.4,3.1-3.1h7.4l14,28.1H12.9L27,12.8z M21.9,87.7c0,1.7-1.4,3.1-3.1,3.1s-3.1-1.4-3.1-3.1V56.5c0-1.7,1.4-3.1,3.1-3.1
			s3.1,1.4,3.1,3.1V87.7z M34.4,87.7c0,1.7-1.4,3.1-3.1,3.1s-3.1-1.4-3.1-3.1V56.5c0-1.7,1.4-3.1,3.1-3.1s3.1,1.4,3.1,3.1V87.7z
			 M46.9,87.7c0,1.7-1.4,3.1-3.1,3.1s-3.1-1.4-3.1-3.1V56.5c0-1.7,1.4-3.1,3.1-3.1s3.1,1.4,3.1,3.1V87.7z M59.4,87.7
			c0,1.7-1.4,3.1-3.1,3.1s-3.1-1.4-3.1-3.1V56.5c0-1.7,1.4-3.1,3.1-3.1s3.1,1.4,3.1,3.1V87.7z M71.9,87.7c0,1.7-1.4,3.1-3.1,3.1
			s-3.1-1.4-3.1-3.1V56.5c0-1.7,1.4-3.1,3.1-3.1s3.1,1.4,3.1,3.1V87.7z M84.4,87.7c0,1.7-1.4,3.1-3.1,3.1s-3.1-1.4-3.1-3.1V56.5
			c0-1.7,1.4-3.1,3.1-3.1s3.1,1.4,3.1,3.1V87.7z"/>
	</g>
</g>
<g id="Layer_2_1_">
	<path fill="#FFFFFF" d="M99.8,19.1c-3.7,1.6-7.6,2.7-11.8,3.2c4.2-2.5,7.5-6.6,9-11.3c-4,2.3-8.3,4.1-13,5c-3.7-4-9.1-6.5-15-6.5
		c-11.3,0-20.5,9.2-20.5,20.5c0,1.6,0.2,3.2,0.5,4.7c-17-0.8-32.1-9-42.2-21.4c-1.8,3-2.8,6.6-2.8,10.3c0,7.1,3.6,13.4,9.1,17.1
		c-3.4-0.1-6.5-1-9.3-2.6c0,0.1,0,0.2,0,0.3c0,9.9,7.1,18.2,16.4,20.1c-1.7,0.5-3.5,0.7-5.4,0.7c-1.3,0-2.6-0.1-3.9-0.4
		c2.6,8.1,10.2,14.1,19.1,14.2c-7,5.5-15.8,8.8-25.5,8.8c-1.7,0-3.3-0.1-4.9-0.3c9.1,5.9,19.8,9.3,31.4,9.3
		c37.7,0,58.3-31.3,58.3-58.4c0-0.9,0-1.8-0.1-2.6C93.6,26.9,97.1,23.2,99.8,19.1z"/>
</g>
</svg>
